<?xml version="1.0" standalone="no"?>
<!DOCTYPE svg PUBLIC "-//W3C//DTD SVG 20010904//EN"
 "http://www.w3.org/TR/2001/REC-SVG-20010904/DTD/svg10.dtd">
<svg version="1.0" xmlns="http://www.w3.org/2000/svg"
 width="512.000000pt" height="512.000000pt" viewBox="0 0 512.000000 512.000000"
 preserveAspectRatio="xMidYMid meet">

<g transform="translate(0.000000,512.000000) scale(0.100000,-0.100000)"
fill="#000000" stroke="none">
<path d="M3542 4510 c-116 -31 -206 -83 -298 -175 -89 -89 -130 -153 -168
-265 l-25 -75 -123 -3 -123 -2 -1017 -1017 c-559 -559 -1019 -1026 -1022
-1037 -8 -30 1161 -1201 1190 -1192 10 3 479 466 1042 1029 l1022 1022 0 581
c0 487 -2 583 -14 600 -14 18 -30 19 -423 19 -224 0 -411 1 -415 3 -4 1 3 30
15 65 129 356 585 481 879 240 120 -98 208 -271 208 -409 0 -50 16 -74 48 -74
41 0 52 17 52 85 0 82 -22 163 -72 265 -81 165 -255 302 -438 345 -89 20 -228
18 -318 -5z m-497 -687 c9 -95 31 -176 67 -246 27 -54 29 -64 19 -97 -27 -90
-3 -180 62 -237 47 -41 96 -56 167 -51 179 13 260 231 136 366 -55 61 -173 85
-244 49 l-32 -16 -19 37 c-31 60 -51 142 -51 204 l0 58 384 0 383 0 -4 -532
-5 -533 -979 -980 -979 -980 -530 530 -530 530 982 982 983 983 91 0 92 0 7
-67z m371 -337 c29 -29 34 -41 34 -80 0 -122 -163 -160 -215 -50 -25 52 -17
58 25 20 46 -41 62 -44 90 -16 30 30 25 46 -27 96 -52 51 -48 64 21 64 30 0
45 -7 72 -34z"/>
</g>
</svg>
